<?xml version="1.0" encoding="UTF-8"?>
<!-- Generator: visioncortex VTracer 0.6.3 -->
<svg version="1.1" xmlns="http://www.w3.org/2000/svg" width="1280" height="338">
<path d="M0 0 C0.71 -0 1.41 -0 2.14 -0 C4.53 -0.01 6.92 -0 9.3 0 C11.03 0 12.76 -0 14.49 -0 C19.27 -0.01 24.05 -0 28.84 0 C34.03 0.01 39.22 0 44.41 0 C53.51 -0 62.62 0 71.73 0 C85.27 0.01 98.82 0.01 112.36 0.01 C135.14 0.01 157.92 0.01 180.7 0.02 C203.26 0.02 225.82 0.03 248.39 0.03 C249.44 0.03 249.44 0.03 250.51 0.03 C256.9 0.03 263.3 0.03 269.7 0.03 C285.6 0.03 301.5 0.03 317.4 0.03 C318.12 0.03 318.85 0.03 319.6 0.03 C354.84 0.04 390.08 0.04 425.32 0.05 C437.55 0.05 449.78 0.05 462.01 0.06 C462.77 0.06 463.53 0.06 464.31 0.06 C499.57 0.06 534.82 0.07 570.07 0.07 C572.36 0.07 574.65 0.07 576.94 0.07 C592.1 0.07 607.27 0.07 622.43 0.07 C652.61 0.08 682.78 0.08 712.96 0.08 C714.39 0.08 715.83 0.08 717.27 0.08 C803.12 0.09 888.96 0.1 1004.14 0.12 C1004.14 1.11 1004.14 2.1 1004.14 3.12 C1005.59 4.38 1007.05 5.62 1008.57 6.79 C1010.14 8.12 1010.14 8.12 1012.14 10.81 C1014.58 13.62 1016.59 14.24 1020.14 15.12 C1020.14 15.78 1020.14 16.44 1020.14 17.12 C1021.13 17.95 1022.12 18.77 1023.14 19.62 C1024.13 20.45 1025.12 21.27 1026.14 22.12 C1026.14 22.78 1026.14 23.44 1026.14 24.12 C1026.78 24.39 1027.42 24.66 1028.08 24.94 C1030.14 26.12 1030.14 26.12 1031.14 29.12 C1032.46 29.83 1033.79 30.49 1035.14 31.12 C1039.73 34.68 1043.6 38.53 1047.14 43.12 C1048.13 43.78 1049.12 44.44 1050.14 45.12 C1053.23 47.99 1055.28 50.39 1057.14 54.12 C1058.13 54.45 1059.12 54.78 1060.14 55.12 C1062.33 57.06 1062.33 57.06 1064.14 59.12 C1064.14 59.78 1064.14 60.44 1064.14 61.12 C1064.98 61.46 1064.98 61.46 1065.83 61.81 C1068.14 63.12 1068.14 63.12 1070.43 65.44 C1073.04 68.17 1073.04 68.17 1076 70.17 C1080.35 73.58 1083.56 76.32 1084.73 81.9 C1085.36 88.1 1085.34 94.3 1085.11 100.53 C1085.06 103.09 1085.06 103.09 1085.63 105.38 C1087.38 114.63 1086.81 124.61 1086.95 134.02 C1087.01 137.92 1087.1 141.82 1087.26 145.72 C1088.36 174.44 1088.36 174.44 1081.17 182.41 C1077.76 185.51 1074.29 188.05 1070.14 190.12 C1069.9 190.93 1069.65 191.73 1069.39 192.56 C1068.14 195.12 1068.14 195.12 1065.02 196.44 C1064.07 196.66 1063.12 196.89 1062.14 197.12 C1062.14 198.77 1062.14 200.42 1062.14 202.12 C1061.48 202.12 1060.82 202.12 1060.14 202.12 C1059.81 203.11 1059.48 204.1 1059.14 205.12 C1057.82 204.79 1056.5 204.46 1055.14 204.12 C1055.47 205.11 1055.8 206.1 1056.14 207.12 C1055.57 207.21 1054.99 207.29 1054.39 207.37 C1051.44 208.36 1050.08 209.71 1048.14 212.12 C1048.14 213.44 1048.14 214.76 1048.14 216.12 C1047.48 216.45 1046.82 216.78 1046.14 217.12 C1045.01 219.14 1045.01 219.14 1044.14 221.12 C1043.48 221.12 1042.82 221.12 1042.14 221.12 C1041.81 222.11 1041.48 223.1 1041.14 224.12 C1040.48 224.12 1039.82 224.12 1039.14 224.12 C1038.82 224.94 1038.82 224.94 1038.49 225.76 C1036.68 228.94 1034.23 231.33 1031.64 233.87 C1031.15 234.38 1030.65 234.89 1030.13 235.41 C1026.4 239.12 1026.4 239.12 1024.14 239.12 C1023.89 239.7 1023.64 240.28 1023.39 240.87 C1021.98 243.43 1020.36 245.1 1018.27 247.12 C1017.59 247.78 1016.91 248.44 1016.22 249.12 C1015.53 249.78 1014.85 250.44 1014.14 251.12 C1013.46 251.85 1012.78 252.57 1012.07 253.31 C1008.5 256.67 1004.93 256.25 1000.24 256.25 C999.53 256.26 998.81 256.26 998.08 256.26 C995.67 256.27 993.27 256.26 990.86 256.26 C989.12 256.26 987.38 256.27 985.64 256.27 C980.81 256.28 975.99 256.28 971.17 256.28 C965.94 256.28 960.71 256.29 955.48 256.29 C945.08 256.3 934.69 256.31 924.3 256.31 C911.86 256.32 899.41 256.33 886.97 256.34 C856.9 256.36 826.83 256.38 796.75 256.39 C786.8 256.4 776.84 256.4 766.89 256.41 C714.75 256.43 662.61 256.45 610.47 256.46 C606.65 256.47 602.84 256.47 599.02 256.47 C598.26 256.47 597.5 256.47 596.72 256.47 C589.05 256.47 581.38 256.47 573.71 256.47 C572.17 256.47 570.63 256.47 569.09 256.47 C519.68 256.49 470.26 256.52 420.84 256.56 C385.34 256.59 349.83 256.62 314.33 256.63 C313.6 256.63 312.87 256.63 312.12 256.63 C296.1 256.63 280.08 256.63 264.06 256.64 C257.62 256.64 251.17 256.64 244.73 256.64 C244.02 256.64 243.32 256.64 242.59 256.64 C219.85 256.64 197.11 256.66 174.37 256.69 C150.83 256.71 127.3 256.72 103.76 256.71 C90.18 256.71 76.6 256.71 63.03 256.74 C53.97 256.76 44.91 256.76 35.85 256.74 C30.68 256.73 25.52 256.73 20.35 256.75 C15.65 256.77 10.95 256.77 6.26 256.75 C4.56 256.74 2.87 256.75 1.17 256.76 C-1.12 256.78 -3.41 256.77 -5.7 256.75 C-7.6 256.75 -7.6 256.75 -9.55 256.75 C-13.73 255.96 -15.24 254.41 -17.86 251.12 C-17.86 250.46 -17.86 249.8 -17.86 249.12 C-19.18 248.79 -20.5 248.46 -21.86 248.12 C-21.86 247.46 -21.86 246.8 -21.86 246.12 C-22.78 245.78 -22.78 245.78 -23.73 245.44 C-25.86 244.12 -25.86 244.12 -26.67 241.81 C-28.18 238.39 -30.13 237.24 -33.2 235.24 C-35.38 233.77 -36.67 232.58 -37.67 230.12 C-39.26 227.45 -40.95 227.04 -43.86 226.12 C-43.86 225.46 -43.86 224.8 -43.86 224.12 C-44.52 223.79 -45.18 223.46 -45.86 223.12 C-45.86 222.13 -45.86 221.14 -45.86 220.12 C-46.43 219.87 -47.01 219.61 -47.6 219.34 C-50.05 218.02 -51.9 216.49 -53.98 214.62 C-54.66 214.02 -55.35 213.41 -56.05 212.78 C-57.35 211.59 -58.61 210.37 -59.86 209.12 C-60.52 208.79 -61.18 208.46 -61.86 208.12 C-62.19 207.13 -62.52 206.14 -62.86 205.12 C-64.71 203.24 -64.71 203.24 -66.92 201.44 C-67.65 200.81 -68.38 200.19 -69.14 199.55 C-69.71 199.08 -70.27 198.61 -70.86 198.12 C-71.52 198.45 -72.18 198.78 -72.86 199.12 C-72.86 198.46 -72.86 197.8 -72.86 197.12 C-73.52 196.79 -74.18 196.46 -74.86 196.12 C-74.53 195.79 -74.2 195.46 -73.86 195.12 C-75.92 192.73 -75.92 192.73 -78.86 191.75 C-81.84 190.82 -82.34 188.79 -83.86 186.12 C-84.69 185.43 -85.53 184.73 -86.39 184.01 C-89.74 180.08 -89.72 177.16 -89.9 172.13 C-89.95 171.23 -90 170.33 -90.05 169.41 C-90.2 166.43 -90.3 163.45 -90.4 160.47 C-90.43 159.44 -90.46 158.42 -90.5 157.36 C-90.66 151.89 -90.78 146.42 -90.88 140.95 C-90.97 136.48 -91.14 132.02 -91.39 127.56 C-93.58 87.97 -93.58 87.97 -82.2 74.51 C-76.17 67.86 -69.34 62.11 -62.14 56.76 C-58.82 54.24 -56.45 51.38 -53.86 48.12 C-51.86 46.46 -49.86 44.79 -47.86 43.12 C-47.03 42.13 -46.21 41.14 -45.36 40.12 C-43.41 37.79 -41.89 36.29 -39.54 34.5 C-38.66 33.72 -37.77 32.93 -36.86 32.12 C-36.86 30.8 -36.86 29.48 -36.86 28.12 C-34.99 25.88 -33.14 23.89 -31.05 21.86 C-30.46 21.27 -29.87 20.68 -29.26 20.07 C-28.01 18.82 -26.75 17.58 -25.48 16.34 C-23.55 14.44 -21.63 12.53 -19.72 10.61 C-18.5 9.4 -17.28 8.2 -16.05 6.99 C-15.19 6.13 -15.19 6.13 -14.31 5.25 C-9.48 0.53 -6.63 -0 0 0 Z M-15.86 9.12 C-16.19 9.78 -16.52 10.44 -16.86 11.12 C-16.2 11.12 -15.54 11.12 -14.86 11.12 C-15.19 10.46 -15.52 9.8 -15.86 9.12 Z M-18.86 12.12 C-19.85 13.61 -19.85 13.61 -20.86 15.12 C-19.87 14.79 -18.88 14.46 -17.86 14.12 C-18.19 13.46 -18.52 12.8 -18.86 12.12 Z M-22.86 16.12 C-23.19 16.78 -23.52 17.44 -23.86 18.12 C-23.2 18.12 -22.54 18.12 -21.86 18.12 C-22.19 17.46 -22.52 16.8 -22.86 16.12 Z M-25.86 19.12 C-26.85 20.61 -26.85 20.61 -27.86 22.12 C-26.87 21.79 -25.88 21.46 -24.86 21.12 C-25.19 20.46 -25.52 19.8 -25.86 19.12 Z M-29.86 23.12 C-30.85 24.61 -30.85 24.61 -31.86 26.12 C-30.87 25.79 -29.88 25.46 -28.86 25.12 C-29.19 24.46 -29.52 23.8 -29.86 23.12 Z M-33.86 27.12 C-34.19 27.78 -34.52 28.44 -34.86 29.12 C-34.2 29.12 -33.54 29.12 -32.86 29.12 C-33.19 28.46 -33.52 27.8 -33.86 27.12 Z M1083.14 171.12 C1082.81 172.44 1082.48 173.76 1082.14 175.12 C1082.8 174.79 1083.46 174.46 1084.14 174.12 C1083.81 173.13 1083.48 172.14 1083.14 171.12 Z M1066.14 191.12 C1065.15 192.61 1065.15 192.61 1064.14 194.12 C1065.13 193.79 1066.12 193.46 1067.14 193.12 C1066.81 192.46 1066.48 191.8 1066.14 191.12 Z M1043.14 216.12 C1043.14 219.12 1043.14 219.12 1043.14 219.12 Z M-20.86 245.12 C-20.53 246.11 -20.2 247.1 -19.86 248.12 C-19.2 247.79 -18.54 247.46 -17.86 247.12 C-18.85 246.46 -19.84 245.8 -20.86 245.12 Z M1013.14 246.12 C1013.47 246.78 1013.8 247.44 1014.14 248.12 C1014.47 247.46 1014.8 246.8 1015.14 246.12 C1014.48 246.12 1013.82 246.12 1013.14 246.12 Z M-13.86 252.12 C-12.87 253.61 -12.87 253.61 -11.86 255.12 C-8.78 255.58 -8.78 255.58 -5.07 255.5 C-4.36 255.5 -3.65 255.5 -2.92 255.51 C-0.51 255.52 1.9 255.51 4.31 255.49 C6.05 255.5 7.79 255.5 9.53 255.5 C14.35 255.51 19.17 255.5 23.99 255.49 C29.22 255.48 34.45 255.49 39.69 255.49 C48.87 255.5 58.05 255.49 67.23 255.48 C80.88 255.46 94.53 255.46 108.19 255.47 C131.15 255.47 154.11 255.46 177.07 255.44 C199.82 255.42 222.56 255.41 245.31 255.41 C246.01 255.41 246.72 255.41 247.45 255.41 C253.89 255.41 260.34 255.41 266.79 255.41 C282.82 255.4 298.85 255.4 314.87 255.4 C315.6 255.4 316.33 255.4 317.09 255.4 C352.61 255.39 388.13 255.37 423.66 255.35 C435.99 255.34 448.32 255.34 460.65 255.33 C461.42 255.33 462.18 255.33 462.97 255.33 C498.51 255.31 534.05 255.3 569.58 255.29 C571.89 255.29 574.2 255.29 576.5 255.29 C591.79 255.28 607.08 255.28 622.36 255.28 C652.78 255.27 683.19 255.26 713.61 255.25 C715.06 255.25 716.51 255.25 717.96 255.25 C803.5 255.23 889.05 255.19 1007.14 255.12 C1007.14 254.79 1007.14 254.46 1007.14 254.12 C1005.82 254.12 1005.82 254.12 1004.47 254.12 C916.97 254.05 829.48 253.98 716.11 253.88 C714.66 253.88 713.21 253.88 711.77 253.88 C681.35 253.85 650.93 253.82 620.51 253.8 C605.24 253.78 589.96 253.77 574.68 253.75 C572.37 253.75 570.07 253.75 567.76 253.75 C532.26 253.72 496.76 253.68 461.26 253.66 C460.49 253.66 459.73 253.66 458.94 253.65 C446.63 253.64 434.32 253.63 422 253.63 C386.55 253.6 351.1 253.57 315.64 253.54 C314.55 253.53 314.55 253.53 313.44 253.53 C297.44 253.52 281.45 253.5 265.45 253.49 C259.02 253.48 252.59 253.48 246.15 253.47 C245.09 253.47 245.09 253.47 244.02 253.47 C221.3 253.45 198.59 253.43 175.88 253.41 C152.37 253.4 128.87 253.38 105.36 253.35 C91.8 253.34 78.24 253.33 64.67 253.32 C55.63 253.31 46.58 253.3 37.54 253.29 C32.38 253.29 27.21 253.28 22.05 253.28 C17.36 253.28 12.67 253.28 7.98 253.27 C6.29 253.26 4.6 253.26 2.9 253.26 C0.62 253.27 -1.67 253.26 -3.96 253.25 C-5.86 253.25 -5.86 253.25 -7.8 253.25 C-10.86 253.12 -10.86 253.12 -13.86 252.12 Z " fill="#F9D73E" transform="translate(140.85515707731247,38.875801503658295)"/>
<path d="M0 0 C0.71 -0 1.41 -0 2.14 -0 C4.53 -0.01 6.92 -0 9.3 0 C11.03 0 12.76 -0 14.49 -0 C19.27 -0.01 24.05 -0 28.84 0 C34.03 0.01 39.22 0 44.41 0 C53.51 -0 62.62 0 71.73 0 C85.27 0.01 98.82 0.01 112.36 0.01 C135.14 0.01 157.92 0.01 180.7 0.02 C203.26 0.02 225.82 0.03 248.39 0.03 C249.44 0.03 249.44 0.03 250.51 0.03 C256.9 0.03 263.3 0.03 269.7 0.03 C285.6 0.03 301.5 0.03 317.4 0.03 C318.12 0.03 318.85 0.03 319.6 0.03 C354.84 0.04 390.08 0.04 425.32 0.05 C437.55 0.05 449.78 0.05 462.01 0.06 C462.77 0.06 463.53 0.06 464.31 0.06 C499.57 0.06 534.82 0.07 570.07 0.07 C572.36 0.07 574.65 0.07 576.94 0.07 C592.1 0.07 607.27 0.07 622.43 0.07 C652.61 0.08 682.78 0.08 712.96 0.08 C714.39 0.08 715.83 0.08 717.27 0.08 C803.12 0.09 888.96 0.1 1004.14 0.12 C1004.14 1.11 1004.14 2.1 1004.14 3.12 C1005.57 4.35 1007 5.57 1008.48 6.73 C1011.11 8.93 1013.08 11.39 1015.14 14.12 C1015.14 14.78 1015.14 15.44 1015.14 16.12 C1009.83 13.67 1005.78 11.4 1003.14 6.12 C999.63 4.38 996.8 3.87 992.89 3.94 C992.02 3.94 991.15 3.95 990.25 3.96 C987.04 4.09 987.04 4.09 983.48 4.63 C976.23 5.44 968.93 5.26 961.64 5.25 C959.94 5.25 958.25 5.25 956.56 5.25 C951.9 5.25 947.25 5.25 942.59 5.24 C937.53 5.24 932.46 5.24 927.4 5.24 C918.52 5.25 909.65 5.24 900.77 5.24 C887.57 5.23 874.37 5.23 861.17 5.23 C844.38 5.24 827.6 5.24 810.81 5.23 C809.46 5.23 808.12 5.23 806.77 5.23 C805.77 5.23 805.77 5.23 804.75 5.23 C769.64 5.23 734.53 5.23 699.42 5.25 C695.21 5.25 691 5.25 686.79 5.25 C685.38 5.25 683.97 5.25 682.56 5.25 C681.51 5.25 681.51 5.25 680.44 5.25 C671.19 5.26 661.94 5.26 652.69 5.27 C621.22 5.28 589.75 5.29 558.28 5.3 C556.05 5.3 553.82 5.3 551.59 5.3 C517.22 5.31 482.86 5.31 448.5 5.31 C447.76 5.31 447.02 5.31 446.26 5.31 C434.34 5.3 422.41 5.3 410.49 5.3 C376.15 5.29 341.82 5.29 307.48 5.3 C306.78 5.3 306.07 5.3 305.34 5.3 C290.55 5.31 275.75 5.32 260.96 5.33 C254.03 5.33 247.1 5.34 240.17 5.34 C239.15 5.34 239.15 5.34 238.11 5.34 C216.12 5.36 194.13 5.35 172.14 5.33 C149.39 5.32 126.64 5.32 103.89 5.35 C90.76 5.36 77.64 5.36 64.51 5.34 C55.76 5.32 47 5.33 38.25 5.35 C33.25 5.37 28.25 5.37 23.26 5.35 C18.72 5.33 14.18 5.34 9.64 5.36 C8 5.37 6.36 5.37 4.73 5.35 C2.51 5.33 0.3 5.35 -1.92 5.37 C-3.76 5.37 -3.76 5.37 -5.64 5.37 C-10.17 6.43 -11.19 8.38 -13.86 12.12 C-15.62 13.73 -15.62 13.73 -17.11 14.87 C-19.88 16.83 -19.88 16.83 -20.86 19.12 C-21.52 19.12 -22.18 19.12 -22.86 19.12 C-22.86 19.78 -22.86 20.44 -22.86 21.12 C-24.18 21.12 -25.5 21.12 -26.86 21.12 C-29.54 23.32 -29.54 23.32 -32.11 26.12 C-33 27.05 -33.89 27.98 -34.81 28.94 C-35.48 29.66 -36.16 30.38 -36.86 31.12 C-36.86 27.31 -35.4 26.31 -32.82 23.69 C-31.94 22.84 -31.94 22.84 -31.05 21.96 C-30.46 21.37 -29.87 20.77 -29.26 20.16 C-28 18.91 -26.75 17.66 -25.48 16.42 C-23.55 14.51 -21.63 12.59 -19.72 10.66 C-18.5 9.45 -17.28 8.24 -16.05 7.02 C-15.48 6.45 -14.9 5.87 -14.31 5.28 C-9.48 0.53 -6.65 -0 0 0 Z M-15.86 9.12 C-16.19 9.78 -16.52 10.44 -16.86 11.12 C-16.2 11.12 -15.54 11.12 -14.86 11.12 C-15.19 10.46 -15.52 9.8 -15.86 9.12 Z M-18.86 12.12 C-19.85 13.61 -19.85 13.61 -20.86 15.12 C-19.87 14.79 -18.88 14.46 -17.86 14.12 C-18.19 13.46 -18.52 12.8 -18.86 12.12 Z M-22.86 16.12 C-23.19 16.78 -23.52 17.44 -23.86 18.12 C-23.2 18.12 -22.54 18.12 -21.86 18.12 C-22.19 17.46 -22.52 16.8 -22.86 16.12 Z " fill="#CAC139" transform="translate(140.85515707731247,38.875801503658295)"/>
<path d="M0 0 C0.99 0.99 1.98 1.98 3 3 C2.34 3.33 1.68 3.66 1 4 C-0.13 6.02 -0.13 6.02 -1 8 C-1.66 8 -2.32 8 -3 8 C-3.33 8.99 -3.66 9.98 -4 11 C-4.66 11 -5.32 11 -6 11 C-6.32 11.81 -6.32 11.81 -6.66 12.64 C-8.46 15.82 -10.92 18.21 -13.5 20.75 C-14 21.26 -14.5 21.76 -15.01 22.29 C-18.75 26 -18.75 26 -21 26 C-21.25 26.58 -21.5 27.15 -21.76 27.75 C-23.17 30.3 -24.78 31.98 -26.88 34 C-27.55 34.66 -28.23 35.32 -28.93 36 C-29.61 36.66 -30.3 37.32 -31 38 C-31.56 38.69 -32.11 39.38 -32.69 40.09 C-35.88 42.72 -37.94 42.5 -42.04 42.49 C-43.11 42.5 -43.11 42.5 -44.21 42.5 C-46.62 42.51 -49.03 42.5 -51.44 42.48 C-53.18 42.48 -54.93 42.48 -56.68 42.49 C-61.5 42.49 -66.33 42.48 -71.16 42.45 C-76.4 42.44 -81.65 42.44 -86.89 42.44 C-96.08 42.44 -105.28 42.42 -114.48 42.4 C-128.15 42.36 -141.83 42.35 -155.5 42.34 C-178.5 42.32 -201.51 42.28 -224.51 42.24 C-247.29 42.19 -270.07 42.15 -292.86 42.13 C-293.56 42.13 -294.27 42.13 -295 42.12 C-301.46 42.12 -307.92 42.11 -314.38 42.1 C-330.44 42.08 -346.49 42.06 -362.55 42.04 C-363.65 42.04 -363.65 42.04 -364.77 42.04 C-400.35 42 -435.94 41.94 -471.52 41.87 C-483.87 41.85 -496.22 41.83 -508.57 41.81 C-509.72 41.81 -509.72 41.81 -510.89 41.81 C-546.49 41.75 -582.09 41.7 -617.69 41.65 C-620 41.65 -622.31 41.64 -624.62 41.64 C-639.94 41.62 -655.25 41.6 -670.56 41.58 C-701.03 41.54 -731.5 41.5 -761.97 41.46 C-763.43 41.46 -764.88 41.45 -766.33 41.45 C-851 41.34 -935.68 41.2 -1056 41 C-1056.33 40.34 -1056.66 39.68 -1057 39 C-1056.67 38.34 -1056.34 37.68 -1056 37 C-968.41 36.9 -880.83 36.8 -767.59 36.67 C-766.16 36.67 -764.72 36.67 -763.28 36.67 C-733.13 36.63 -702.97 36.6 -672.82 36.57 C-657.67 36.55 -642.52 36.54 -627.37 36.52 C-625.09 36.52 -622.8 36.52 -620.51 36.51 C-585.33 36.47 -550.14 36.44 -514.95 36.39 C-514.2 36.39 -513.44 36.39 -512.66 36.39 C-500.46 36.38 -488.26 36.36 -476.07 36.35 C-440.93 36.31 -405.8 36.27 -370.66 36.23 C-369.94 36.23 -369.22 36.23 -368.48 36.23 C-352.61 36.21 -336.75 36.19 -320.89 36.18 C-314.51 36.17 -308.13 36.16 -301.75 36.16 C-300.7 36.16 -300.7 36.16 -299.63 36.16 C-277.13 36.13 -254.62 36.11 -232.12 36.08 C-208.82 36.05 -185.52 36.02 -162.22 36 C-148.78 35.99 -135.34 35.97 -121.91 35.95 C-112.93 35.94 -103.96 35.93 -94.99 35.93 C-89.88 35.92 -84.76 35.92 -79.65 35.91 C-74.99 35.9 -70.34 35.89 -65.69 35.89 C-64.01 35.89 -62.34 35.89 -60.67 35.89 C-52.74 35.87 -44.94 35.9 -37.06 36.97 C-34.73 37.21 -34.73 37.21 -32.38 35.06 C-31.59 34.05 -30.81 33.04 -30 32 C-28.52 30.64 -27.02 29.31 -25.5 28 C-22.2 25.12 -19.09 22.11 -16 19 C-14.84 17.87 -13.68 16.75 -12.52 15.62 C-11.28 14.42 -10.05 13.21 -8.81 12 C-8.18 11.4 -7.56 10.79 -6.91 10.17 C-3.68 7 -1.25 4.49 0 0 Z " fill="#FBF147" transform="translate(1186,252)"/>
<path d="M0 0 C1.65 0 3.3 0 5 0 C4.4 5.36 0.08 8.13 -3.88 11.31 C-7.03 13.88 -9.57 16.85 -12.2 19.94 C-15.62 23.86 -19.18 27.66 -23.38 30.75 C-25.31 32 -25.31 32 -26 35 C-26.66 35 -27.32 35 -28 35 C-28 66.02 -28 97.04 -28 129 C-28.66 129 -29.32 129 -30 129 C-30.84 116.88 -31.49 104.76 -31.95 92.61 C-32.16 86.97 -32.43 81.34 -32.84 75.71 C-35.66 35.72 -35.66 35.72 -24.25 22.23 C-18.13 15.46 -11.18 9.6 -3.85 4.18 C-0.97 2.31 -0.97 2.31 0 0 Z " fill="#F3E443" transform="translate(83,91)"/>
<path d="M0 0 C0.33 0 0.66 0 1 0 C3.28 9.95 2.65 20.71 2.81 30.89 C2.87 34.8 2.96 38.69 3.11 42.59 C4.22 71.31 4.22 71.31 -2.98 79.28 C-6.38 82.39 -9.86 84.93 -14 87 C-14.4 88.24 -14.4 88.24 -14.81 89.5 C-15.2 90.32 -15.6 91.15 -16 92 C-18.62 92.81 -18.62 92.81 -21 93 C-20.36 92.24 -19.72 91.47 -19.06 90.69 C-16.86 88.12 -16.86 88.12 -16 85 C-14.4 83.42 -14.4 83.42 -12.38 81.75 C-10.9 80.52 -9.44 79.27 -8 78 C-7.11 77.3 -7.11 77.3 -6.2 76.58 C-2.54 73.42 -0.58 71.11 -0.1 66.21 C-0.05 64.27 -0.04 62.32 -0.06 60.38 C-0.05 59.3 -0.03 58.23 -0.02 57.12 C0.02 53.88 0.02 50.63 0.01 47.39 C-0 43.71 0.01 40.04 0.03 36.37 C0.07 24.24 0.05 12.12 0 0 Z " fill="#FBF147" transform="translate(1225,142)"/>
<path d="M0 0 C0.66 0 1.32 0 2 0 C3.35 1.65 4.68 3.32 6 5 C6.99 5.66 7.98 6.32 9 7 C12.09 9.86 14.14 12.27 16 16 C16.99 16.33 17.98 16.66 19 17 C21.19 18.94 21.19 18.94 23 21 C23 21.66 23 22.32 23 23 C23.56 23.23 24.11 23.45 24.69 23.69 C27 25 27 25 29.28 27.29 C31.92 30.04 31.92 30.04 34.89 32.23 C42.42 38.41 42.42 38.41 43.52 43.28 C44.19 50.52 43.66 57.93 42 65 C41.67 65 41.34 65 41 65 C40.99 64.39 40.97 63.78 40.96 63.15 C40.88 60.37 40.78 57.59 40.69 54.81 C40.65 53.37 40.65 53.37 40.62 51.9 C40.38 44.96 40.38 44.96 37 39 C35.37 37.62 33.71 36.28 32 35 C30.19 33.38 30.19 33.38 29 32 C29 31.34 29 30.68 29 30 C28.01 29.67 27.02 29.34 26 29 C24.57 27.55 24.57 27.55 23.12 25.75 C20.6 22.63 17.86 19.82 15 17 C14 16 12.99 15 11.99 13.99 C11.48 13.48 10.97 12.97 10.44 12.44 C7.96 9.96 5.48 7.48 3 5 C2.38 4.43 1.77 3.85 1.13 3.26 C0 2 0 2 0 0 Z " fill="#FBEE46" transform="translate(1182,77)"/>
<path d="M0 0 C0.66 0.33 1.32 0.66 2 1 C1.07 1.92 0.14 2.84 -0.82 3.78 C-9.37 12.24 -9.37 12.24 -17.4 21.18 C-20.42 24.62 -23.72 27.8 -27 31 C-27.66 30.34 -28.32 29.68 -29 29 C-28.38 28.42 -27.76 27.84 -27.12 27.25 C-24.99 25.21 -24.99 25.21 -24.06 23.12 C-21.74 18.48 -17.85 14.45 -14 11 C-13.34 11 -12.68 11 -12 11 C-11.67 10.01 -11.34 9.02 -11 8 C-5.65 3 -5.65 3 -2 3 C-2 2.34 -2 1.68 -2 1 C-1.34 0.67 -0.68 0.34 0 0 Z " fill="#EAD13D" transform="translate(120,57)"/>
<path d="M0 0 C-1.58 3.88 -4.23 6.52 -7.16 9.42 C-7.66 9.93 -8.16 10.43 -8.68 10.95 C-9.74 12.01 -10.8 13.07 -11.87 14.13 C-13.5 15.75 -15.12 17.38 -16.75 19.02 C-17.78 20.05 -18.81 21.08 -19.84 22.11 C-20.33 22.6 -20.82 23.09 -21.32 23.6 C-24.77 27 -24.77 27 -27 27 C-27.33 27.99 -27.66 28.98 -28 30 C-30.06 31.19 -30.06 31.19 -32 32 C-32 31.01 -32 30.02 -32 29 C-27.66 25 -27.66 25 -25 25 C-24.74 24.4 -24.47 23.79 -24.2 23.17 C-22.94 20.9 -21.85 19.83 -19.81 18.25 C-16.41 15.45 -13.62 12.38 -10.77 9.04 C-8.97 6.96 -7.11 4.97 -5.19 3 C-4.34 2.13 -4.34 2.13 -3.48 1.25 C-2 0 -2 0 0 0 Z " fill="#C2A430" transform="translate(1181,258)"/>
<path d="M0 0 C0.33 0 0.66 0 1 0 C1 24.09 1 48.18 1 73 C0.67 73 0.34 73 0 73 C0 48.91 0 24.82 0 0 Z " fill="#FCF248" transform="translate(51,128)"/>
<path d="M0 0 C3.63 1.53 5.99 3.72 8.75 6.5 C9.95 7.69 9.95 7.69 11.17 8.91 C13 11 13 11 13 13 C13.56 13.21 14.11 13.41 14.69 13.62 C17.93 15.55 19.68 18.04 22 21 C19 21 19 21 16.98 19.31 C16.25 18.55 15.51 17.79 14.75 17 C13.96 16.18 13.17 15.36 12.35 14.52 C7.99 9.85 3.79 5.14 0 0 Z " fill="#C5A631" transform="translate(1187,85)"/>
<path d="M0 0 C0.66 0.33 1.32 0.66 2 1 C-3.28 6.28 -8.56 11.56 -14 17 C-14.33 16.34 -14.66 15.68 -15 15 C-14.34 14.01 -13.68 13.02 -13 12 C-12.34 12 -11.68 12 -11 12 C-10.67 11.01 -10.34 10.02 -10 9 C-8.69 7.65 -7.35 6.31 -6 5 C-5.67 4.34 -5.34 3.68 -5 3 C-4.01 3 -3.02 3 -2 3 C-2 2.34 -2 1.68 -2 1 C-1.34 0.67 -0.68 0.34 0 0 Z " fill="#CBAD33" transform="translate(120,57)"/>
<path d="M0 0 C0.66 0.66 1.32 1.32 2 2 C-2.46 7.22 -7.07 12.21 -12 17 C-12.33 16.01 -12.66 15.02 -13 14 C-11.62 12.5 -11.62 12.5 -10 11 C-9.34 11 -8.68 11 -8 11 C-7.34 9.68 -6.68 8.36 -6 7 C-5.34 7 -4.68 7 -4 7 C-3.71 6.4 -3.42 5.8 -3.12 5.19 C-2 3 -2 3 0 0 Z " fill="#BDA02F" transform="translate(1222,210)"/>
<path d="M0 0 C0.66 0.33 1.32 0.66 2 1 C-0.53 3.53 -3.06 6.06 -5.62 8.56 C-8 10.88 -8 10.88 -9.69 13.31 C-10.34 14.15 -10.34 14.15 -11 15 C-11.66 15 -12.32 15 -13 15 C-11.39 10.93 -8.46 8.23 -5.38 5.25 C-4.86 4.74 -4.34 4.24 -3.81 3.71 C-2.55 2.47 -1.27 1.24 0 0 Z " fill="#FBEF46" transform="translate(1171,264)"/>
<path d="M0 0 C0.99 0.33 1.98 0.66 3 1 C-0.75 5.88 -0.75 5.88 -3 7 C-3.72 8.64 -4.39 10.31 -5 12 C-5.33 11.34 -5.66 10.68 -6 10 C-6.66 10 -7.32 10 -8 10 C-8 9.34 -8 8.68 -8 8 C-6.52 6.75 -5.04 5.5 -3.51 4.32 C-1.73 2.88 -1.73 2.88 0 0 Z " fill="#FBEA45" transform="translate(95,79)"/>
<path d="M0 0 C0.66 0.33 1.32 0.66 2 1 C0.5 5.21 -2.29 6.74 -6 9 C-6.66 8.34 -7.32 7.68 -8 7 C-5.36 4.69 -2.72 2.38 0 0 Z " fill="#E3C439" transform="translate(83,98)"/>
<path d="M0 0 C0.33 0.66 0.66 1.32 1 2 C1.99 2.33 2.98 2.66 4 3 C6.74 5.54 8.93 7.89 11 11 C8 11 8 11 5.74 9.03 C4.94 8.2 4.14 7.36 3.31 6.5 C2.5 5.66 1.7 4.83 0.86 3.97 C0.25 3.32 -0.37 2.67 -1 2 C-0.67 1.34 -0.34 0.68 0 0 Z " fill="#C9AB32" transform="translate(1210,107)"/>
<path d="M0 0 C0.66 0.33 1.32 0.66 2 1 C-2.29 5.29 -6.58 9.58 -11 14 C-11.66 13.67 -12.32 13.34 -13 13 C-8.71 8.71 -4.42 4.42 0 0 Z " fill="#CDB034" transform="translate(101,70)"/>
<path d="M0 0 C0.33 0 0.66 0 1 0 C1 6.6 1 13.2 1 20 C0.67 20 0.34 20 0 20 C0 13.4 0 6.8 0 0 Z " fill="#000000" transform="translate(1226,121)"/>
<path d="M0 0 C0.33 0 0.66 0 1 0 C1 1.98 1 3.96 1 6 C0.67 6 0.34 6 0 6 C0 4.02 0 2.04 0 0 Z " fill="#FCF248" transform="translate(51,202)"/>
<path d="M0 0 C0.99 0.33 1.98 0.66 3 1 C2.67 1.66 2.34 2.32 2 3 C1.34 2.01 0.68 1.02 0 0 Z " fill="#000000" transform="translate(1165,58)"/>
<path d="M0 0 C1 4 1 4 1 4 Z " fill="#FCF248" transform="translate(51,209)"/>
<path d="M0 0 C0.66 0.66 1.32 1.32 2 2 C1.34 2 0.68 2 0 2 C0 1.34 0 0.68 0 0 Z " fill="#000000" transform="translate(108,275)"/>
<path d="M0 0 C0.66 0.66 1.32 1.32 2 2 C1.34 2 0.68 2 0 2 C0 1.34 0 0.68 0 0 Z " fill="#000000" transform="translate(55,224)"/>
<path d="" fill="#000000" transform="translate(0,0)"/>
<path d="M0 0 C2 1 2 1 2 1 Z " fill="#000000" transform="translate(1194,247)"/>
<path d="M0 0 C2 1 2 1 2 1 Z " fill="#3A2B0E" transform="translate(1205,236)"/>
<path d="" fill="#000000" transform="translate(0,0)"/>
<path d="" fill="#000000" transform="translate(0,0)"/>
<path d="" fill="#000000" transform="translate(0,0)"/>
<path d="" fill="#000000" transform="translate(0,0)"/>
<path d="" fill="#000000" transform="translate(0,0)"/>
<path d="" fill="#000000" transform="translate(0,0)"/>
<path d="" fill="#000000" transform="translate(0,0)"/>
<path d="" fill="#000000" transform="translate(0,0)"/>
<path d="" fill="#000000" transform="translate(0,0)"/>
<path d="" fill="#000000" transform="translate(0,0)"/>
<path d="" fill="#000000" transform="translate(0,0)"/>
<path d="" fill="#000000" transform="translate(0,0)"/>
<path d="" fill="#000000" transform="translate(0,0)"/>
<path d="" fill="#000000" transform="translate(0,0)"/>
<path d="" fill="#000000" transform="translate(0,0)"/>
<path d="" fill="#000000" transform="translate(0,0)"/>
<path d="" fill="#000000" transform="translate(0,0)"/>
<path d="" fill="#000000" transform="translate(0,0)"/>
<path d="" fill="#000000" transform="translate(0,0)"/>
<path d="" fill="#000000" transform="translate(0,0)"/>
<path d="" fill="#000000" transform="translate(0,0)"/>
<path d="" fill="#000000" transform="translate(0,0)"/>
<path d="" fill="#C4A631" transform="translate(0,0)"/>
<path d="" fill="#000000" transform="translate(0,0)"/>
<path d="" fill="#000000" transform="translate(0,0)"/>
<path d="" fill="#000000" transform="translate(0,0)"/>
<path d="" fill="#000000" transform="translate(0,0)"/>
<path d="" fill="#000000" transform="translate(0,0)"/>
<path d="" fill="#000000" transform="translate(0,0)"/>
<path d="" fill="#000000" transform="translate(0,0)"/>
<path d="" fill="#000000" transform="translate(0,0)"/>
<path d="" fill="#000000" transform="translate(0,0)"/>
<path d="" fill="#000000" transform="translate(0,0)"/>
<path d="" fill="#000000" transform="translate(0,0)"/>
<path d="" fill="#000000" transform="translate(0,0)"/>
<path d="" fill="#000000" transform="translate(0,0)"/>
<path d="" fill="#3A2B0E" transform="translate(0,0)"/>
<path d="" fill="#FCF248" transform="translate(0,0)"/>
<path d="" fill="#000000" transform="translate(0,0)"/>
<path d="" fill="#FCF248" transform="translate(0,0)"/>
<path d="" fill="#000000" transform="translate(0,0)"/>
<path d="" fill="#000000" transform="translate(0,0)"/>
<path d="" fill="#000000" transform="translate(0,0)"/>
<path d="" fill="#000000" transform="translate(0,0)"/>
<path d="" fill="#000000" transform="translate(0,0)"/>
<path d="" fill="#000000" transform="translate(0,0)"/>
<path d="" fill="#000000" transform="translate(0,0)"/>
<path d="" fill="#000000" transform="translate(0,0)"/>
</svg>
